<svg id="Layer_1" data-name="Layer 1" xmlns="http://www.w3.org/2000/svg" width="1920" height="1080" viewBox="0 0 1920 1080">
  <title>cat</title>
  <rect width="1920" height="1080"/>
  <circle cx="576" cy="367.5" r="172" style="fill: #fff"/>
  <circle cx="1344" cy="367.5" r="172" style="fill: #fff"/>
  <g>
    <g>
      <line x1="161.6569" y1="724.5" x2="372.9723" y2="724.5" style="fill: none;stroke: #fff;stroke-linecap: round;stroke-miterlimit: 10;stroke-width: 25px"/>
      <line x1="166.5038" y1="533.1224" x2="368.1254" y2="605.8776" style="fill: none;stroke: #fff;stroke-linecap: round;stroke-miterlimit: 10;stroke-width: 25px"/>
      <line x1="373.3431" y1="821.1224" x2="171.7215" y2="893.8776" style="fill: none;stroke: #fff;stroke-linecap: round;stroke-miterlimit: 10;stroke-width: 25px"/>
    </g>
    <g>
      <line x1="1758.3431" y1="724.5" x2="1547.0277" y2="724.5" style="fill: none;stroke: #fff;stroke-linecap: round;stroke-miterlimit: 10;stroke-width: 25px"/>
      <line x1="1753.4962" y1="533.1224" x2="1551.8746" y2="605.8776" style="fill: none;stroke: #fff;stroke-linecap: round;stroke-miterlimit: 10;stroke-width: 25px"/>
      <line x1="1546.6569" y1="821.1224" x2="1748.2785" y2="893.8776" style="fill: none;stroke: #fff;stroke-linecap: round;stroke-miterlimit: 10;stroke-width: 25px"/>
    </g>
  </g>
  <g>
    <path d="M846.96,781.0121c0,25.8442-25.2407,46.7951-56.3767,46.7951s-56.3768-20.9509-56.3768-46.7951" style="fill: none;stroke: #fff;stroke-linecap: round;stroke-miterlimit: 10;stroke-width: 25px"/>
    <path d="M847.1509,781.1707c0-25.8443,25.2408-46.7952,56.3768-46.7952s56.3767,20.9509,56.3767,46.7952" style="fill: none;stroke: #fff;stroke-linecap: round;stroke-miterlimit: 10;stroke-width: 25px"/>
    <path d="M1072.8491,781.3293c0,25.8443-25.2408,46.7952-56.3768,46.7952s-56.3767-20.9509-56.3767-46.7952" style="fill: none;stroke: #fff;stroke-linecap: round;stroke-miterlimit: 10;stroke-width: 25px"/>
    <path d="M1073.04,781.4879c0-25.8442,25.2407-46.7951,56.3767-46.7951s56.3768,20.9509,56.3768,46.7951" style="fill: none;stroke: #fff;stroke-linecap: round;stroke-miterlimit: 10;stroke-width: 25px"/>
  </g>
  <path d="M466,682s-12.7566,46.9629-8,79c5.5692,37.51,65.0153,41.4827,55-6C504.9405,716.79,466,682,466,682Z" style="fill: #fff"/>
  <g>
    <path d="M331.5,367s299-19,387-193l-311-48"/>
    <path d="M1588.5,367s-299-19-387-193l311-48"/>
  </g>
  <g>
    <path d="M374.6212,492.5s236-153,435-72-240,200-240,200Z"/>
    <path d="M1545.3788,492.5s-236-153-435-72,240,200,240,200Z"/>
  </g>
  <path d="M457.3109,453.3358s-29.0512,58.6953-32.6085,87.7464-2.3715,75.296,32.6085,84.1892,48.6162-51.5807,36.1657-78.8532S457.3109,453.3358,457.3109,453.3358Z" style="fill: #fff"/>
</svg>
