{
    "asset" : {
        "generator" : "Khronos glTF Blender I/O v3.4.50",
        "version" : "2.0"
    },
    "scene" : 0,
    "scenes" : [
        {
            "name" : "Scene",
            "nodes" : [
                4
            ]
        }
    ],
    "nodes" : [
        {
            "name" : "wing.L",
            "rotation" : [
                -0.5000002384185791,
                -0.4999998211860657,
                -0.4999997913837433,
                0.5000001788139343
            ],
            "translation" : [
                -2.5036970431857033e-18,
                0.13797877728939056,
                2.6539738942215506e-23
            ]
        },
        {
            "name" : "wing.R",
            "rotation" : [
                -0.4999998211860657,
                0.5000002384185791,
                0.5000001788139343,
                0.4999997615814209
            ],
            "scale" : [
                1,
                0.9999999403953552,
                1
            ],
            "translation" : [
                -2.5036970431857033e-18,
                0.13797877728939056,
                2.6539738942215506e-23
            ]
        },
        {
            "children" : [
                0,
                1
            ],
            "name" : "root",
            "rotation" : [
                0.7071068286895752,
                -3.062661733110872e-07,
                -3.062661733110872e-07,
                0.7071068286895752
            ],
            "translation" : [
                0,
                0,
                -0.13797877728939056
            ]
        },
        {
            "mesh" : 0,
            "name" : "butterfly mesh.001",
            "skin" : 0
        },
        {
            "children" : [
                3,
                2
            ],
            "name" : "butterfly export"
        }
    ],
    "animations" : [
        {
            "channels" : [
                {
                    "sampler" : 0,
                    "target" : {
                        "node" : 2,
                        "path" : "translation"
                    }
                },
                {
                    "sampler" : 1,
                    "target" : {
                        "node" : 2,
                        "path" : "rotation"
                    }
                },
                {
                    "sampler" : 2,
                    "target" : {
                        "node" : 2,
                        "path" : "scale"
                    }
                },
                {
                    "sampler" : 3,
                    "target" : {
                        "node" : 0,
                        "path" : "translation"
                    }
                },
                {
                    "sampler" : 4,
                    "target" : {
                        "node" : 0,
                        "path" : "rotation"
                    }
                },
                {
                    "sampler" : 5,
                    "target" : {
                        "node" : 0,
                        "path" : "scale"
                    }
                },
                {
                    "sampler" : 6,
                    "target" : {
                        "node" : 1,
                        "path" : "translation"
                    }
                },
                {
                    "sampler" : 7,
                    "target" : {
                        "node" : 1,
                        "path" : "rotation"
                    }
                },
                {
                    "sampler" : 8,
                    "target" : {
                        "node" : 1,
                        "path" : "scale"
                    }
                }
            ],
            "name" : "Wing Flap Export",
            "samplers" : [
                {
                    "input" : 37,
                    "interpolation" : "LINEAR",
                    "output" : 38
                },
                {
                    "input" : 37,
                    "interpolation" : "LINEAR",
                    "output" : 39
                },
                {
                    "input" : 37,
                    "interpolation" : "LINEAR",
                    "output" : 40
                },
                {
                    "input" : 37,
                    "interpolation" : "LINEAR",
                    "output" : 41
                },
                {
                    "input" : 37,
                    "interpolation" : "LINEAR",
                    "output" : 42
                },
                {
                    "input" : 37,
                    "interpolation" : "LINEAR",
                    "output" : 43
                },
                {
                    "input" : 37,
                    "interpolation" : "LINEAR",
                    "output" : 44
                },
                {
                    "input" : 37,
                    "interpolation" : "LINEAR",
                    "output" : 45
                },
                {
                    "input" : 37,
                    "interpolation" : "LINEAR",
                    "output" : 46
                }
            ]
        }
    ],
    "materials" : [
        {
            "doubleSided" : true,
            "name" : "simple color",
            "pbrMetallicRoughness" : {}
        }
    ],
    "meshes" : [
        {
            "name" : "Cylinder.001",
            "primitives" : [
                {
                    "attributes" : {
                        "COLOR_0" : 0,
                        "POSITION" : 1,
                        "TEXCOORD_0" : 2,
                        "NORMAL" : 3,
                        "JOINTS_0" : 4,
                        "WEIGHTS_0" : 5
                    },
                    "indices" : 6,
                    "material" : 0
                }
            ]
        }
    ],
    "skins" : [
        {
            "inverseBindMatrices" : 7,
            "joints" : [
                2,
                0,
                1
            ],
            "name" : "butterfly export"
        }
    ],
    "accessors" : [
        {
            "bufferView" : 0,
            "componentType" : 5123,
            "count" : 64,
            "normalized" : true,
            "type" : "VEC4"
        },
        {
            "bufferView" : 1,
            "componentType" : 5126,
            "count" : 64,
            "max" : [
                0.2998071014881134,
                0.03077111952006817,
                0.2211247980594635
            ],
            "min" : [
                -0.2998071014881134,
                -0.03077111952006817,
                -0.1763753592967987
            ],
            "type" : "VEC3"
        },
        {
            "bufferView" : 2,
            "componentType" : 5126,
            "count" : 64,
            "type" : "VEC2"
        },
        {
            "bufferView" : 3,
            "componentType" : 5126,
            "count" : 64,
            "type" : "VEC3"
        },
        {
            "bufferView" : 4,
            "componentType" : 5121,
            "count" : 64,
            "type" : "VEC4"
        },
        {
            "bufferView" : 5,
            "componentType" : 5126,
            "count" : 64,
            "type" : "VEC4"
        },
        {
            "bufferView" : 6,
            "componentType" : 5123,
            "count" : 339,
            "type" : "SCALAR"
        },
        {
            "bufferView" : 7,
            "componentType" : 5126,
            "count" : 3,
            "type" : "MAT4"
        },
        {
            "bufferView" : 8,
            "componentType" : 5126,
            "count" : 19,
            "max" : [
                0.6333333333333333
            ],
            "min" : [
                0.03333333333333333
            ],
            "type" : "SCALAR"
        },
        {
            "bufferView" : 9,
            "componentType" : 5126,
            "count" : 19,
            "type" : "VEC3"
        },
        {
            "bufferView" : 10,
            "componentType" : 5126,
            "count" : 19,
            "type" : "VEC4"
        },
        {
            "bufferView" : 11,
            "componentType" : 5126,
            "count" : 19,
            "type" : "VEC3"
        },
        {
            "bufferView" : 12,
            "componentType" : 5126,
            "count" : 19,
            "type" : "VEC3"
        },
        {
            "bufferView" : 13,
            "componentType" : 5126,
            "count" : 19,
            "type" : "VEC4"
        },
        {
            "bufferView" : 14,
            "componentType" : 5126,
            "count" : 19,
            "type" : "VEC3"
        },
        {
            "bufferView" : 15,
            "componentType" : 5126,
            "count" : 19,
            "type" : "VEC3"
        },
        {
            "bufferView" : 16,
            "componentType" : 5126,
            "count" : 19,
            "type" : "VEC4"
        },
        {
            "bufferView" : 17,
            "componentType" : 5126,
            "count" : 19,
            "type" : "VEC3"
        },
        {
            "bufferView" : 18,
            "componentType" : 5126,
            "count" : 19,
            "type" : "VEC3"
        },
        {
            "bufferView" : 19,
            "componentType" : 5126,
            "count" : 19,
            "type" : "VEC4"
        },
        {
            "bufferView" : 20,
            "componentType" : 5126,
            "count" : 19,
            "type" : "VEC3"
        },
        {
            "bufferView" : 21,
            "componentType" : 5126,
            "count" : 19,
            "type" : "VEC3"
        },
        {
            "bufferView" : 22,
            "componentType" : 5126,
            "count" : 19,
            "type" : "VEC4"
        },
        {
            "bufferView" : 23,
            "componentType" : 5126,
            "count" : 19,
            "type" : "VEC3"
        },
        {
            "bufferView" : 24,
            "componentType" : 5126,
            "count" : 19,
            "type" : "VEC3"
        },
        {
            "bufferView" : 25,
            "componentType" : 5126,
            "count" : 19,
            "type" : "VEC4"
        },
        {
            "bufferView" : 26,
            "componentType" : 5126,
            "count" : 19,
            "type" : "VEC3"
        },
        {
            "bufferView" : 27,
            "componentType" : 5126,
            "count" : 3,
            "max" : [
                0.1
            ],
            "min" : [
                0.03333333333333333
            ],
            "type" : "SCALAR"
        },
        {
            "bufferView" : 28,
            "componentType" : 5126,
            "count" : 3,
            "type" : "VEC3"
        },
        {
            "bufferView" : 29,
            "componentType" : 5126,
            "count" : 3,
            "type" : "VEC4"
        },
        {
            "bufferView" : 30,
            "componentType" : 5126,
            "count" : 3,
            "type" : "VEC3"
        },
        {
            "bufferView" : 31,
            "componentType" : 5126,
            "count" : 3,
            "type" : "VEC3"
        },
        {
            "bufferView" : 32,
            "componentType" : 5126,
            "count" : 3,
            "type" : "VEC4"
        },
        {
            "bufferView" : 33,
            "componentType" : 5126,
            "count" : 3,
            "type" : "VEC3"
        },
        {
            "bufferView" : 34,
            "componentType" : 5126,
            "count" : 3,
            "type" : "VEC3"
        },
        {
            "bufferView" : 35,
            "componentType" : 5126,
            "count" : 3,
            "type" : "VEC4"
        },
        {
            "bufferView" : 36,
            "componentType" : 5126,
            "count" : 3,
            "type" : "VEC3"
        },
        {
            "bufferView" : 37,
            "componentType" : 5126,
            "count" : 9,
            "max" : [
                0.3
            ],
            "min" : [
                0.03333333333333333
            ],
            "type" : "SCALAR"
        },
        {
            "bufferView" : 38,
            "componentType" : 5126,
            "count" : 9,
            "type" : "VEC3"
        },
        {
            "bufferView" : 39,
            "componentType" : 5126,
            "count" : 9,
            "type" : "VEC4"
        },
        {
            "bufferView" : 40,
            "componentType" : 5126,
            "count" : 9,
            "type" : "VEC3"
        },
        {
            "bufferView" : 41,
            "componentType" : 5126,
            "count" : 9,
            "type" : "VEC3"
        },
        {
            "bufferView" : 42,
            "componentType" : 5126,
            "count" : 9,
            "type" : "VEC4"
        },
        {
            "bufferView" : 43,
            "componentType" : 5126,
            "count" : 9,
            "type" : "VEC3"
        },
        {
            "bufferView" : 44,
            "componentType" : 5126,
            "count" : 9,
            "type" : "VEC3"
        },
        {
            "bufferView" : 45,
            "componentType" : 5126,
            "count" : 9,
            "type" : "VEC4"
        },
        {
            "bufferView" : 46,
            "componentType" : 5126,
            "count" : 9,
            "type" : "VEC3"
        }
    ],
    "bufferViews" : [
        {
            "buffer" : 0,
            "byteLength" : 512,
            "byteOffset" : 0,
            "target" : 34962
        },
        {
            "buffer" : 0,
            "byteLength" : 768,
            "byteOffset" : 512,
            "target" : 34962
        },
        {
            "buffer" : 0,
            "byteLength" : 512,
            "byteOffset" : 1280,
            "target" : 34962
        },
        {
            "buffer" : 0,
            "byteLength" : 768,
            "byteOffset" : 1792,
            "target" : 34962
        },
        {
            "buffer" : 0,
            "byteLength" : 256,
            "byteOffset" : 2560,
            "target" : 34962
        },
        {
            "buffer" : 0,
            "byteLength" : 1024,
            "byteOffset" : 2816,
            "target" : 34962
        },
        {
            "buffer" : 0,
            "byteLength" : 678,
            "byteOffset" : 3840,
            "target" : 34963
        },
        {
            "buffer" : 0,
            "byteLength" : 192,
            "byteOffset" : 4520
        },
        {
            "buffer" : 0,
            "byteLength" : 76,
            "byteOffset" : 4712
        },
        {
            "buffer" : 0,
            "byteLength" : 228,
            "byteOffset" : 4788
        },
        {
            "buffer" : 0,
            "byteLength" : 304,
            "byteOffset" : 5016
        },
        {
            "buffer" : 0,
            "byteLength" : 228,
            "byteOffset" : 5320
        },
        {
            "buffer" : 0,
            "byteLength" : 228,
            "byteOffset" : 5548
        },
        {
            "buffer" : 0,
            "byteLength" : 304,
            "byteOffset" : 5776
        },
        {
            "buffer" : 0,
            "byteLength" : 228,
            "byteOffset" : 6080
        },
        {
            "buffer" : 0,
            "byteLength" : 228,
            "byteOffset" : 6308
        },
        {
            "buffer" : 0,
            "byteLength" : 304,
            "byteOffset" : 6536
        },
        {
            "buffer" : 0,
            "byteLength" : 228,
            "byteOffset" : 6840
        },
        {
            "buffer" : 0,
            "byteLength" : 228,
            "byteOffset" : 7068
        },
        {
            "buffer" : 0,
            "byteLength" : 304,
            "byteOffset" : 7296
        },
        {
            "buffer" : 0,
            "byteLength" : 228,
            "byteOffset" : 7600
        },
        {
            "buffer" : 0,
            "byteLength" : 228,
            "byteOffset" : 7828
        },
        {
            "buffer" : 0,
            "byteLength" : 304,
            "byteOffset" : 8056
        },
        {
            "buffer" : 0,
            "byteLength" : 228,
            "byteOffset" : 8360
        },
        {
            "buffer" : 0,
            "byteLength" : 228,
            "byteOffset" : 8588
        },
        {
            "buffer" : 0,
            "byteLength" : 304,
            "byteOffset" : 8816
        },
        {
            "buffer" : 0,
            "byteLength" : 228,
            "byteOffset" : 9120
        },
        {
            "buffer" : 0,
            "byteLength" : 12,
            "byteOffset" : 9348
        },
        {
            "buffer" : 0,
            "byteLength" : 36,
            "byteOffset" : 9360
        },
        {
            "buffer" : 0,
            "byteLength" : 48,
            "byteOffset" : 9396
        },
        {
            "buffer" : 0,
            "byteLength" : 36,
            "byteOffset" : 9444
        },
        {
            "buffer" : 0,
            "byteLength" : 36,
            "byteOffset" : 9480
        },
        {
            "buffer" : 0,
            "byteLength" : 48,
            "byteOffset" : 9516
        },
        {
            "buffer" : 0,
            "byteLength" : 36,
            "byteOffset" : 9564
        },
        {
            "buffer" : 0,
            "byteLength" : 36,
            "byteOffset" : 9600
        },
        {
            "buffer" : 0,
            "byteLength" : 48,
            "byteOffset" : 9636
        },
        {
            "buffer" : 0,
            "byteLength" : 36,
            "byteOffset" : 9684
        },
        {
            "buffer" : 0,
            "byteLength" : 36,
            "byteOffset" : 9720
        },
        {
            "buffer" : 0,
            "byteLength" : 108,
            "byteOffset" : 9756
        },
        {
            "buffer" : 0,
            "byteLength" : 144,
            "byteOffset" : 9864
        },
        {
            "buffer" : 0,
            "byteLength" : 108,
            "byteOffset" : 10008
        },
        {
            "buffer" : 0,
            "byteLength" : 108,
            "byteOffset" : 10116
        },
        {
            "buffer" : 0,
            "byteLength" : 144,
            "byteOffset" : 10224
        },
        {
            "buffer" : 0,
            "byteLength" : 108,
            "byteOffset" : 10368
        },
        {
            "buffer" : 0,
            "byteLength" : 108,
            "byteOffset" : 10476
        },
        {
            "buffer" : 0,
            "byteLength" : 144,
            "byteOffset" : 10584
        },
        {
            "buffer" : 0,
            "byteLength" : 108,
            "byteOffset" : 10728
        }
    ],
    "buffers" : [
        {
            "byteLength" : 10836,
            "uri" : "data:application/octet-stream;base64,"
        }
    ]
}
