<?xml version="1.0" encoding="UTF-8" standalone="no"?>
<!DOCTYPE svg PUBLIC "-//W3C//DTD SVG 1.1//EN" "http://www.w3.org/Graphics/SVG/1.1/DTD/svg11.dtd">
<svg width="100%" height="100%" viewBox="0 0 16 25" version="1.1" xmlns="http://www.w3.org/2000/svg" xmlns:xlink="http://www.w3.org/1999/xlink" xml:space="preserve" xmlns:serif="http://www.serif.com/" style="fill-rule:evenodd;clip-rule:evenodd;stroke-linejoin:round;stroke-miterlimit:2;">
    <g transform="matrix(1,0,0,1,-740.285,-119.835)">
        <g transform="matrix(0.987167,0,0,1.12202,-2.9615,5.6101)">
            <g transform="matrix(1.79767e-17,0.258296,-0.161053,8.67639e-18,781.786,-25.0613)">
                <path d="M504.798,174.634C501.882,180.467 496.915,180.887 493.715,175.57C490.515,170.253 490.285,161.2 493.202,155.366L528.202,85.366C529.688,82.393 531.793,80.699 534,80.699C536.207,80.699 538.312,82.393 539.798,85.366L574.798,155.366C577.715,161.2 577.485,170.253 574.285,175.57C571.085,180.887 566.118,180.467 563.202,174.634L534,116.23L504.798,174.634Z" style="fill-opacity:0.84;"/>
            </g>
        </g>
    </g>
</svg>
