<svg id="레이어_1" data-name="레이어 1" xmlns="http://www.w3.org/2000/svg" viewBox="0 0 360 453"><defs><style>.cls-1{fill:#f8d2e3;}.cls-2{fill:#da438a;}.cls-3{fill:none;}</style></defs><title>pinkie</title><rect class="cls-1" y="251" width="360" height="202"/><rect class="cls-2" y="15" width="360" height="254.89"/><path class="cls-3" d="M328.36,188.1a26.16,26.16,0,0,0-.42-3.53c-1-5.12-4.71-7.51-9.8-6.38a19.41,19.41,0,0,0-7.68,3.82,156.38,156.38,0,0,0-16.59,15.35,12.5,12.5,0,0,1-2.61,2.44c-.13-.92-.24-1.64-.32-2.36s-.06-1.56-.2-2.32a2.58,2.58,0,0,1,.61-2.27A66.31,66.31,0,0,1,309.54,177a68.56,68.56,0,0,0,6.61-4.16,8.57,8.57,0,0,0,3.61-5.78,25.75,25.75,0,0,0-2.19-14.85,6.74,6.74,0,0,0-5.72-3.94,10.51,10.51,0,0,0-4.81.91c-5.58,2.21-9.91,6.16-14,10.33a91.52,91.52,0,0,0-12.79,16.4c-.42.69-.79.76-1.39.23a19.9,19.9,0,0,0-3.58-2.52c-5.93-3.27-14.64-3.1-19.5,2.37-.14.16-.27.52-.7.25a22.6,22.6,0,0,0,2.89-9.09c.1-1.07.51-1.37,1.52-1.42a10.64,10.64,0,0,1,6.65,1.74c3.66,2.45,7.3,2.37,11.13.37a59.76,59.76,0,0,0,9.85-6.7,17.77,17.77,0,0,0,3.62-3.92c2-3,1.46-5.82-1.41-7.9a8.76,8.76,0,0,0-1-.67,25.7,25.7,0,0,0-16.5-2.68c-6.48,1.1-12.55,3.6-18.55,6.23a6.68,6.68,0,0,1-2,.77c-.2-.39,0-.6.18-.81a38.45,38.45,0,0,0,6.33-17.21c.14-1.18.55-1.66,1.81-.92a1.89,1.89,0,0,0-.87-1.49,1.45,1.45,0,0,1-.58-1.15c-.08-1,1.29-1.32,1.14-1.69-.28-.68-1-1.08-1-2.06a51.27,51.27,0,0,0-1-9.8c-.23-1.09-.13-1.72,1.08-2.16a4.1,4.1,0,0,0,2.4-4.41c-.87,1-1.37,2.13-2.43,2.8-1.26.79-1.49.66-2-.74a1.76,1.76,0,0,1,.82-2.49,4.12,4.12,0,0,0,1.72-2.09,3.38,3.38,0,0,0,.27-2.85c-.59.28-.74.8-1,1.2a10,10,0,0,1-1.93,2.12c-.33.26-.8.6-1,0-.47-1.09-1.36-2.11-.76-3.47a4.07,4.07,0,0,0,.2-3.21c-.19-.49-.32-1.28-.91-1.2s-.23.85-.35,1.31c0,.13,0,.27-.05.4-.07.3,0,.73-.39.81s-.49-.35-.65-.61A32.06,32.06,0,0,0,248,97.68a30.09,30.09,0,0,0-12.67-8.15c-1.06-.35-1.15-.76-.54-1.65a20.75,20.75,0,0,1,4.84-5.18c3.93-2.85,8.33-3.43,13-2.83,7.56,1,12.15,5.18,13.52,12.63,1,5.34.24,10.66-.13,16-.22,3.14-.71,6.29.12,9.41a4.19,4.19,0,0,0,4.47,3.45,7.82,7.82,0,0,0,5-1.94c4.75-3.9,6.6-9.17,7-15.07a4.11,4.11,0,0,0-.28-2.61,26.6,26.6,0,0,1-9.07,9.33,21.23,21.23,0,0,1,1.21-2.64,66.37,66.37,0,0,0,7.24-26.68c.33-6.81-.59-13.41-4.28-19.39a19.3,19.3,0,0,0-23.34-8.28c-5.43,1.95-9.21,5.81-11.94,10.79a11.88,11.88,0,0,1-1.6,2.79c-.25-.61-.45-1.06-.63-1.52-4-10.31-16.85-11.22-22.82-5.2-.67.68-1.2,2.1-1.9,1.95s-1.21-1.46-1.81-2.25c-4.8-6.36-12-8.16-18.85-4.72-7.14,3.57-11.95,12.35-11.11,20.36a2.19,2.19,0,0,1-1.29,2.51,29.46,29.46,0,0,0-9.41,7.86,24.19,24.19,0,0,0-5.22,17.29,20.08,20.08,0,0,0,2.88,9.2c.42.67.31,1-.5,1.06a18.3,18.3,0,0,0-3,.5,13.65,13.65,0,0,0-9.14,8.82c-3.38,8.92-2.1,17.33,3.31,25.13a28.56,28.56,0,0,0,6.13,6c-1.09-.13-1.86-.25-2.63-.3-3.23-.21-5.25,1.86-4.9,5.08a16.91,16.91,0,0,0,.54,2.82,37.22,37.22,0,0,0,5.88,11.55l1,1.42c-4-2.51-5.43-6.74-7.25-10.64a.72.72,0,0,0-.61.65c-1.61,5.78-1.54,11.38,2.31,16.32a6.16,6.16,0,0,1,1.25,5.72c-1,4.31.79,7,5,8.44a11.25,11.25,0,0,0,2.13.53,32.94,32.94,0,0,0,19.45-3.2,12.54,12.54,0,0,0,6.78-8.52c.4-1.55.71-3.12,1.12-4.67a7.74,7.74,0,0,1,1.17-2.86,4.14,4.14,0,0,1,.43.66c.67,2,1.32,3.9,2,5.84a16.57,16.57,0,0,0,2.56,5.13,10.53,10.53,0,0,0,8.06,3.79,2.35,2.35,0,0,1,2.53,2.2,49.84,49.84,0,0,0,5.93,15.27c6.33,10.56,15.08,18,27.17,21.16,1.06.28.94.7.57,1.44a15.67,15.67,0,0,1-7.18,7.12,4.14,4.14,0,0,1-3.27.29,38.32,38.32,0,0,0-16-1.43c-8.3,1.15-14.21,5.46-17.38,13.3a33.45,33.45,0,0,0-2.31,12.19c0,1-.34,1.48-1.43,1.47a37.39,37.39,0,0,0-4.24.21c-9.31.92-16.53,5.23-20.92,13.58-4.7,9-4.75,18.32-1.57,27.81a53.87,53.87,0,0,0,3,6.56c-.58-.07-.94-.12-1.29-.15a8.83,8.83,0,0,0-10,7,14.4,14.4,0,0,0-.07,6.4c2.15,10.62,11.84,17.31,23.8,11.87.27-.13.69-.21.66-.6s-.48-.37-.76-.45a25.11,25.11,0,0,1-6.2-2.56c-2.75-1.71-5-3.88-5.65-7.62l1.28.88c5.14,3.54,9.78,3.17,14.2-1.21a1.75,1.75,0,0,1,2.17-.41c4.19,1.55,8.44,1.94,12.52-.19a17.35,17.35,0,0,0,9.87-15.63c.05-1.23.26-1.48,1.45-1a27.35,27.35,0,0,0,14,1.31c8.51-1.35,15.72-5.06,20.9-12.14,4.55-6.21,4.74-13.45.6-19.74a28.16,28.16,0,0,0-7.93-7.68c-1.31-.9-1.33-.92,0-1.64a32.47,32.47,0,0,0,17.06-21.44,42.31,42.31,0,0,0,1-16.87c-.35-2.33.56-3.5,2.31-4.49l.24-.14c3.71-2.25,7.88-3.11,12.07-3.87.83-.15,1.12.36,1.39,1a15.39,15.39,0,0,0,3.54,5.17,6.57,6.57,0,0,0,9.91-.49c.74-.87,1.43-1.78,2.11-2.7a54.67,54.67,0,0,1,14.92-13.59A131.44,131.44,0,0,1,323,205.92a8.5,8.5,0,0,0,5-6.6A50.75,50.75,0,0,0,328.36,188.1ZM199.29,155.31a48.65,48.65,0,0,0-11.36,3.55c-2.12,1-2.17.93-3.81-1.19a16.51,16.51,0,0,0,3.79-.61,6.17,6.17,0,0,0,3.36-9.34A20.83,20.83,0,0,0,185.9,142c.1-.41.36-.35.57-.35a35.67,35.67,0,0,0,6-.29,1.43,1.43,0,0,1,1.81,1.17,38.2,38.2,0,0,0,5.64,11.38C200.62,154.83,200.27,155.13,199.29,155.31Zm52,31.38a8.26,8.26,0,0,1-2.4-3c-.3-.51.08-.84.46-1.12a23.82,23.82,0,0,0,4-3.57A31.66,31.66,0,0,0,251.27,186.69Z"/></svg>