<svg id="레이어_1" data-name="레이어 1" xmlns="http://www.w3.org/2000/svg" xmlns:xlink="http://www.w3.org/1999/xlink" viewBox="0 0 360 453"><defs><style>.cls-1{fill:#594d97;}.cls-2{fill:url(#무제_그라디언트_53);}.cls-3{fill:#fff;}.cls-4{fill:#e2cee4;}</style><linearGradient id="무제_그라디언트_53" x1="179.8" y1="87.24" x2="180.2" y2="87.24" gradientUnits="userSpaceOnUse"><stop offset="0" stop-color="#9ad6f2" stop-opacity="0"/><stop offset="0.16" stop-color="#9ad6f2" stop-opacity="0.26"/><stop offset="0.32" stop-color="#9ad6f2" stop-opacity="0.48"/><stop offset="0.48" stop-color="#9ad6f2" stop-opacity="0.67"/><stop offset="0.63" stop-color="#9ad6f2" stop-opacity="0.81"/><stop offset="0.77" stop-color="#9ad6f2" stop-opacity="0.92"/><stop offset="0.9" stop-color="#9ad6f2" stop-opacity="0.98"/><stop offset="1" stop-color="#9ad6f2"/></linearGradient></defs><title>background</title><path class="cls-1" d="M0,87.24V250H360V71.74c-11.11-15.85-30-29.46-62.18-29.46-45.29,0-73.47,34.07-102.61,62.14-20.42,19.67-41.32,36.39-68.9,36.39C65,140.81,43.72,95.06.4,87.28Z"/><path class="cls-2" d="M180.2,87.21v0l-.4,0Z"/><path class="cls-3" d="M0,109V250H360V95.53C348.89,81.79,330,70,297.82,70c-45.29,0-73.47,29.52-102.61,53.85-20.42,17-41.32,31.53-68.9,31.53C65,155.38,43.72,115.74.4,109Z"/><path class="cls-4" d="M0,143.45V250H360V130c-11.11-13.74-30-25.53-62.18-25.53-45.29,0-73.47,29.52-102.61,53.85-20.42,17-41.32,31.53-68.9,31.53C65,189.87,43.72,150.23.4,143.48Z"/><rect class="cls-4" x="0.2" y="249.98" width="359.6" height="203.02"/></svg>